<svg width="133" height="31" fill="none" xmlns="http://www.w3.org/2000/svg"><path d="M7.956 0H5.353L.05 18.3v.047h2.72L6.607 3.55l3.802 14.797h2.812L7.956 0z" fill="#EE9A49"/><path d="M30.381 10.218c0 .376-.2.686-.599.928-.4.242-.91.364-1.532.366h-6.652a.363.363 0 00-.358.366v6.472H18.6V0h9.65c.62 0 1.13.119 1.529.357.398.238.598.546.599.923l.003 8.938zm-2.64-1.566V2.403a.682.682 0 00-.672-.687h-5.463a.371.371 0 00-.366.375V8.97a.37.37 0 00.366.375h5.463a.682.682 0 00.67-.692h.002zM48.415 18.2h-2.774l-5.34-9.334a.723.723 0 01-.021-.677.695.695 0 01.62-.392h4.285V1.984H38.4V18.2h-2.64V.148h9.957c.62 0 1.127.119 1.52.357.394.238.59.546.59.923v6.851c0 .87-.963 1.304-2.889 1.304-.19 0-.468-.006-.834-.018l-.486-.013a.177.177 0 00-.15.269c1.654 2.786 3.304 5.579 4.947 8.379zm7.955 0h-2.64V.148h2.64V18.2zm18.197-1.281c0 .377-.203.685-.608.922-.406.238-.919.357-1.54.359h-7.658c-.621 0-1.128-.12-1.52-.359-.393-.239-.59-.546-.59-.922V1.426c0-.377.196-.684.59-.923.393-.239.9-.358 1.52-.357h7.658c.621 0 1.134.119 1.54.357.405.238.608.546.608.923v4.199h-2.66V1.984h-6.614v14.38h6.613v-4.029h2.66v4.584zm43.167-1.984c0 .953-.516 1.736-1.549 2.347s-2.335.917-3.905.918h-6.553a.252.252 0 01-.251-.256V.403c0-.033.006-.066.018-.097a.259.259 0 01.233-.16h6.553c1.583.001 2.888.306 3.915.917 1.026.611 1.54 1.394 1.539 2.348v11.523zm-2.64-.575V3.967c0-.592-.307-1.07-.922-1.436-.614-.365-1.41-.548-2.385-.547h-3.066a.604.604 0 00-.558.381.621.621 0 00-.044.233V15.75a.62.62 0 00.174.432.602.602 0 00.428.183h2.914c1.026 0 1.86-.179 2.501-.536.641-.358.961-.847.958-1.469zm17.401 3.84h-9.324a.273.273 0 01-.268-.275V.422a.279.279 0 01.077-.192.272.272 0 01.191-.082h9.211a.183.183 0 01.163.112.176.176 0 01.012.068v1.475a.178.178 0 01-.107.166.181.181 0 01-.068.015h-6.569a.273.273 0 00-.249.17.264.264 0 00-.019.103v6.045h6.209a.181.181 0 01.125.053.179.179 0 01.051.127v1.085a.178.178 0 01-.176.18h-6.209v6.348a.264.264 0 00.077.193.267.267 0 00.191.081h6.682a.18.18 0 01.176.18v1.472a.178.178 0 01-.176.179z" fill="#fff"/><path d="M87.88 18.302h-3.231c-1.101 0-2.01-.195-2.729-.584-.718-.39-1.077-.883-1.077-1.48V10.57L78.113 9v-.293l2.73-1.56V2.113c0-.597.359-1.09 1.076-1.48.719-.388 1.628-.583 2.73-.582h3.23v1.634c-.161 0-.449-.005-.864-.015-.414-.01-.733-.016-.955-.016-1.745 0-2.617.35-2.618 1.047v4.255c0 .417-.317.76-.91 1.107-.611.337-.903.494-1.486.796.6.306.903.472 1.486.795.593.348.91.688.91 1.097v4.955c0 .69.873 1.036 2.618 1.036.223 0 .541-.005.956-.015.414-.01.701-.015.863-.015v1.59zm3.546-1.59c.161 0 .449.005.863.015.417.01.733.015.956.015 1.745 0 2.617-.345 2.617-1.036V10.75c0-.41.317-.75.91-1.097.584-.324.886-.486 1.487-.796a51.99 51.99 0 01-1.486-.795c-.594-.347-.91-.695-.91-1.107V2.7c0-.697-.873-1.046-2.618-1.047-.223 0-.54.005-.956.016-.416.01-.702.015-.863.015V.05h3.23c1.102 0 2.011.195 2.729.584.717.39 1.076.883 1.077 1.48v5.033l2.73 1.56V9l-2.73 1.57v5.667c0 .598-.36 1.091-1.077 1.48-.718.39-1.628.584-2.729.585h-3.23v-1.591z" fill="#EE9A49"/><path d="M3.58 25.297c.327-.003.65.076.939.23.295.162.542.4.715.69l1.193-.695a2.58 2.58 0 00-1.111-1.143c-.494-.266-1.068-.399-1.723-.399a3.877 3.877 0 00-1.858.436c-.528.276-.97.692-1.275 1.204a3.582 3.582 0 000 3.512 3.19 3.19 0 001.28 1.212 3.89 3.89 0 001.853.435c.648 0 1.218-.134 1.71-.403a2.7 2.7 0 001.124-1.15l-1.193-.694c-.173.29-.42.527-.715.69a1.951 1.951 0 01-.939.23c-.588 0-1.07-.19-1.448-.567-.377-.377-.565-.88-.565-1.51s.19-1.133.571-1.51c.382-.378.862-.567 1.442-.568zm6.291-.274v-.969h-1.48v6.639h1.554v-3.22c0-.664.17-1.171.51-1.523.34-.351.813-.528 1.418-.529.12.002.241.014.36.038v-1.48c-1.128 0-1.915.348-2.362 1.044zm8.86-.615a3.478 3.478 0 00-1.736-.429 3.572 3.572 0 00-1.765.436 3.127 3.127 0 00-1.222 1.211 3.473 3.473 0 00-.442 1.747c-.01.617.147 1.224.454 1.759.303.52.75.94 1.286 1.212.556.29 1.198.436 1.927.435a4.127 4.127 0 001.542-.273 2.8 2.8 0 001.131-.808l-.834-.957c-.472.48-1.073.721-1.802.721-.572 0-1.05-.143-1.436-.43a1.806 1.806 0 01-.715-1.162h5.21c.017-.198.026-.352.026-.46 0-.679-.143-1.278-.43-1.796a3.033 3.033 0 00-1.193-1.206zm-3.623 2.432a1.837 1.837 0 011.887-1.617c.506 0 .928.149 1.268.447.34.3.557.717.608 1.169l-3.763.001zm9.706-2.86a5.602 5.602 0 00-1.554.207c-.453.124-.879.33-1.256.61l.61 1.132c.27-.22.58-.385.913-.487a3.576 3.576 0 011.1-.174c.547 0 .96.124 1.237.373.278.249.417.605.417 1.07v.099h-1.713c-.953 0-1.652.18-2.095.54-.443.361-.665.84-.665 1.436a1.8 1.8 0 00.305 1.026c.215.313.515.558.864.709a3.13 3.13 0 001.305.254c.498 0 .922-.076 1.274-.23.332-.136.615-.367.815-.665v.813h1.462v-3.891c0-.945-.259-1.652-.777-2.12-.519-.468-1.266-.702-2.242-.703zm1.467 4.636a1.452 1.452 0 01-.64.765 2.002 2.002 0 01-1.038.267c-.398 0-.709-.083-.933-.248a.791.791 0 01-.335-.672c0-.588.447-.882 1.343-.883h1.603v.771zm6.85.883c-.299 0-.527-.085-.684-.255-.158-.17-.236-.416-.237-.74v-3.281h1.779v-1.244h-4.426v1.244h1.094v3.319c0 .729.199 1.285.596 1.667.398.382.961.573 1.691.572a3 3 0 00.827-.112c.243-.065.469-.18.665-.336l-.435-1.106c-.25.187-.558.283-.87.272zm3.207-5.445h1.554v6.639h-1.554v-6.639zm6.813 4.923l-2.064-4.923H39.47l2.847 6.639h1.604l2.847-6.639h-1.492l-2.126 4.923zm9.64-4.569a3.478 3.478 0 00-1.736-.429 3.572 3.572 0 00-1.766.436 3.126 3.126 0 00-1.224 1.211 3.473 3.473 0 00-.442 1.747c-.01.617.147 1.224.455 1.759.304.52.753.941 1.292 1.212.556.29 1.198.436 1.927.435a4.128 4.128 0 001.542-.273c.438-.17.827-.448 1.13-.808l-.833-.957c-.473.48-1.074.721-1.803.721-.572 0-1.05-.143-1.436-.43a1.807 1.807 0 01-.715-1.162h5.21c.017-.198.026-.352.026-.46 0-.679-.143-1.278-.43-1.796a3.032 3.032 0 00-1.197-1.206zm-3.623 2.432a1.837 1.837 0 011.89-1.616c.505 0 .928.15 1.267.448.341.3.558.716.61 1.168h-3.768zm11.412-2.786h1.554v6.639H60.58v-6.639zm7.98-.075a3.508 3.508 0 00-1.32.236 2.431 2.431 0 00-.972.695v-.856h-1.474v6.639h1.553v-3.357c0-.648.166-1.144.498-1.486.331-.342.782-.514 1.353-.514.505 0 .895.147 1.169.441.274.294.41.731.41 1.312v3.604h1.554v-3.805c0-.96-.253-1.686-.759-2.175-.506-.49-1.176-.734-2.011-.734zm9.138 0a3.5 3.5 0 00-1.32.236 2.432 2.432 0 00-.972.695v-.856h-1.48v6.639h1.554v-3.357c0-.648.166-1.144.497-1.486.332-.342.784-.514 1.356-.516.505 0 .894.148 1.168.442.274.294.411.731.41 1.311v3.605h1.554v-3.804c0-.96-.252-1.686-.758-2.175-.506-.49-1.176-.734-2.009-.734zm10.244.436a4.025 4.025 0 00-3.642 0 3.184 3.184 0 00-1.262 1.205 3.626 3.626 0 000 3.512c.298.515.736.935 1.262 1.212a4.03 4.03 0 003.642 0 3.168 3.168 0 001.262-1.212 3.624 3.624 0 000-3.512 3.184 3.184 0 00-1.262-1.205zm-.41 4.463c-.373.38-.845.571-1.417.572-.572 0-1.042-.19-1.411-.57-.37-.383-.556-.884-.556-1.506 0-.621.186-1.123.556-1.504.37-.38.84-.571 1.411-.572.57 0 1.043.19 1.417.572.37.382.556.883.556 1.504s-.185 1.123-.556 1.505v-.001zm6.651.1l-2.064-4.924h-1.616l2.847 6.639h1.604l2.847-6.639h-1.492l-2.126 4.923zm7.533-4.999a5.612 5.612 0 00-1.554.209 3.79 3.79 0 00-1.255.609l.61 1.132c.27-.22.58-.385.913-.487a3.574 3.574 0 011.1-.174c.547 0 .959.124 1.237.373.277.249.416.605.417 1.07v.099h-1.716c-.953 0-1.65.18-2.095.54-.444.361-.666.84-.665 1.436a1.8 1.8 0 00.304 1.026c.216.313.516.558.865.709a3.13 3.13 0 001.305.254c.498 0 .922-.076 1.274-.23.332-.136.615-.367.815-.665v.813h1.467v-3.891c0-.945-.259-1.652-.778-2.12-.518-.468-1.266-.702-2.244-.703zm1.468 4.637a1.455 1.455 0 01-.641.765 2.001 2.001 0 01-1.038.267c-.398 0-.709-.083-.932-.248a.787.787 0 01-.336-.672c0-.588.448-.882 1.343-.883h1.604v.771zm6.849.883c-.298 0-.526-.085-.683-.255-.158-.17-.237-.416-.237-.74v-3.281h1.778v-1.244h-4.425v1.243h1.094v3.319c0 .73.199 1.285.597 1.667.398.382.961.573 1.69.572.28.002.558-.036.827-.112a1.82 1.82 0 00.665-.335l-.435-1.106a1.369 1.369 0 01-.871.272zm3.208-5.445h1.554v6.639h-1.554v-6.639zm9.025.36a4.022 4.022 0 00-3.642 0 3.18 3.18 0 00-1.262 1.206 3.62 3.62 0 000 3.512c.298.515.736.935 1.262 1.212a4.027 4.027 0 003.642 0 3.166 3.166 0 001.262-1.212 3.62 3.62 0 000-3.512 3.181 3.181 0 00-1.262-1.205zm-.41 4.465c-.371.38-.843.572-1.417.572-.575 0-1.045-.19-1.411-.572-.369-.382-.554-.883-.556-1.505-.003-.621.183-1.123.556-1.504.37-.38.84-.571 1.411-.572.57 0 1.042.19 1.417.572.373.382.56.883.56 1.504s-.187 1.123-.56 1.505zm10.02-4.168c-.506-.49-1.177-.734-2.015-.734a3.5 3.5 0 00-1.32.236 2.437 2.437 0 00-.969.695v-.854h-1.48v6.639h1.555v-3.357c0-.648.165-1.144.497-1.486.332-.342.783-.514 1.355-.516.506 0 .895.148 1.168.442.274.294.411.731.411 1.311v3.605h1.553v-3.804c.002-.96-.249-1.686-.755-2.177z" fill="#fff"/></svg>