<svg width="279" height="284" fill="none" xmlns="http://www.w3.org/2000/svg"><path d="M122.985 282.54l.949-11.043 1.537.133-.831 9.671 4.862.423.387-3.225c.184-1.52.415-2.745.695-3.674.27-.931.634-1.62 1.094-2.067.459-.437 1.044-.625 1.755-.563.324.028.65.099.977.212l-.23 1.395a2.064 2.064 0 00-.497-.107 1.297 1.297 0 00-1.128.443c-.303.344-.554.873-.752 1.587-.199.714-.37 1.663-.514 2.848l-.572 4.639-7.732-.672zm-8.948-4.077l-1.476-.325 1.299-5.971-6.297 4.87-1.338-.294 1.784-8.199 1.476.325-1.299 5.971 6.282-4.874 1.353.298-1.784 8.199zm-23.231-6.507l2.732-7.93 1.428.498-1.103 3.202c.99-.102 1.906-.006 2.75.288.981.342 1.66.836 2.038 1.482.377.646.408 1.427.091 2.345l-.886 2.573-1.428-.498.856-2.483c.189-.549.163-1.022-.078-1.419-.25-.4-.684-.707-1.298-.922-.695-.242-1.503-.328-2.427-.259l-1.247 3.621-1.428-.498zm-8.182-3.348l-1.362-.659 1.535-3.21-4.284-2.073-1.535 3.211-1.362-.659 3.616-7.563 1.362.658-1.515 3.169 4.285 2.072 1.514-3.168 1.362.659-3.616 7.563zm-17.167-9.178c-.976-.62-1.57-1.334-1.783-2.143-.221-.814-.032-1.699.567-2.655l2.688-4.285 1.211.768-.588.938c.42-.195.886-.255 1.397-.181.497.079 1.017.29 1.558.633.79.501 1.304 1.096 1.543 1.784.23.683.148 1.336-.244 1.961s-.931.982-1.62 1.07c-.693.096-1.532-.168-2.517-.793l-2.024-1.284-.16.254c-.347.554-.453 1.079-.318 1.577.135.497.513.943 1.134 1.337.417.265.87.452 1.36.563.483.12.935.151 1.355.093l-.072 1.302a4.438 4.438 0 01-1.724-.158 6.275 6.275 0 01-1.763-.781zm4.216-6.069c-.489-.31-.978-.47-1.467-.481a2.242 2.242 0 00-1.36.447l-.621.991 1.97 1.251c1.083.687 1.854.664 2.313-.068.224-.357.263-.725.116-1.105-.146-.38-.463-.725-.951-1.035zm-19.703-5.294l5.204-6.559 1.058.849-1.65 2.08 2.03 1.63 3.077-.934 1.268 1.018-3.365.966c.374.543.559 1.089.553 1.639-.013.557-.222 1.091-.628 1.603-.596.751-1.302 1.116-2.118 1.095-.823-.012-1.681-.377-2.575-1.095l-2.854-2.292zm6.37 1.287c.348-.438.471-.872.37-1.304-.115-.43-.447-.866-.996-1.307l-1.81-1.452-2.051 2.586 1.759 1.413c1.132.909 2.041.93 2.729.064zm-23.138-20.077l3.051 3.501 5.279-4.657.996 1.143-6.273 5.534-4.047-4.644.994-.877zm-7.301-7.299c-.667-.948-.945-1.836-.835-2.665.105-.838.615-1.583 1.531-2.236l4.11-2.93.828 1.176-.899.641c.463-.019.916.104 1.36.369.43.264.83.658 1.2 1.183.54.767.79 1.514.749 2.242-.047.719-.37 1.292-.97 1.719-.599.427-1.233.549-1.902.366-.678-.177-1.353-.743-2.026-1.699l-1.384-1.964-.244.174c-.53.378-.828.823-.892 1.334-.065.512.116 1.069.54 1.672.285.405.633.752 1.043 1.042.402.296.808.499 1.218.607l-.56 1.176a4.448 4.448 0 01-1.535-.809 6.311 6.311 0 01-1.332-1.398zm6.199-3.991c-.334-.474-.725-.81-1.173-1.008a2.233 2.233 0 00-1.427-.108l-.95.677 1.346 1.912c.74 1.051 1.462 1.326 2.164.826.342-.244.518-.57.527-.977.009-.408-.154-.848-.487-1.322zm-15.193-10.473c-.386-.714-.575-1.44-.567-2.177a3.834 3.834 0 01.599-2.04c.387-.632.949-1.15 1.686-1.554.738-.403 1.48-.599 2.227-.587a3.775 3.775 0 012.029.602c.619.394 1.122.949 1.508 1.663a3.97 3.97 0 01.485 1.627 3.475 3.475 0 01-.283 1.597l3.789-2.073.722 1.335-10.012 5.478-.692-1.28 1.162-.635a3.133 3.133 0 01-1.522-.628 3.966 3.966 0 01-1.13-1.328zm6.38-3.347a2.836 2.836 0 00-1.002-1.091 2.64 2.64 0 00-1.394-.391c-.517-.006-1.029.13-1.536.407-.507.278-.894.634-1.16 1.068-.282.43-.426.894-.432 1.39-.012.487.11.967.366 1.44.251.463.59.825 1.017 1.084.412.255.872.388 1.38.399.502.001 1.007-.137 1.514-.414.507-.278.901-.632 1.182-1.062a2.69 2.69 0 00.432-1.39 2.91 2.91 0 00-.367-1.44zM10.066 192.93c-.428-1.078-.492-2.007-.191-2.788.297-.789.966-1.394 2.01-1.813l4.677-1.879.531 1.338-1.023.411c.454.091.866.317 1.236.68.357.357.654.835.891 1.433.346.872.415 1.658.206 2.355-.213.688-.66 1.169-1.342 1.443-.683.274-1.328.244-1.935-.092-.618-.332-1.143-1.041-1.575-2.13l-.887-2.235-.278.112c-.604.242-.997.605-1.178 1.087-.182.482-.136 1.066.136 1.753.183.46.44.88.77 1.259.322.382.67.674 1.044.876l-.82 1.011a4.463 4.463 0 01-1.302-1.147 6.322 6.322 0 01-.97-1.674zm6.956-2.419c-.214-.539-.516-.958-.906-1.256a2.24 2.24 0 00-1.362-.442l-1.081.435.864 2.176c.474 1.196 1.111 1.634 1.91 1.313.39-.157.637-.432.74-.826.104-.394.049-.861-.165-1.4zm-11.089-9.467l-.397-1.467 3.418-.934-1.247-4.615-3.418.934-.396-1.467 8.05-2.201.397 1.467-3.372.922 1.247 4.615 3.372-.922.396 1.467-8.05 2.201zM2.47 158.586l.482 3.034 6.933-1.113.238 1.501-6.933 1.113.482 3.034-1.306.21-1.2-7.569 1.305-.21zm-2.09-7.072l-.073-1.518 6.07-.29-6.312-4.851L0 143.479l8.334-.398.071 1.519-6.07.289 6.312 4.835.066 1.392-8.334.398zm.21-24.292l8.322.594-.096 1.358-2.638-.188-.183 2.606 2.508 2.021-.114 1.627-2.699-2.241c-.233.619-.576 1.081-1.029 1.388-.463.305-1.02.435-1.668.389-.953-.068-1.652-.446-2.098-1.134-.456-.689-.644-1.607-.563-2.755l.258-3.665zm2.559 6.009c.555.039.98-.105 1.277-.433.287-.339.455-.862.505-1.567l.164-2.322-3.282-.234-.159 2.258c-.102 1.454.396 2.219 1.495 2.298zm6-26.875l-.438 1.685 3.412.897-.382 1.471-8.072-2.122.382-1.471 3.411.897.446-1.716-2.727-3.532.41-1.578 3.084 4.1 5.043-2.193-.45 1.731-4.12 1.831zm-.123-15.815c.413-1.084.994-1.81 1.74-2.177.752-.377 1.651-.364 2.7.041l4.702 1.815-.513 1.346-1.029-.398c.273.377.422.825.45 1.344.02.505-.084 1.059-.314 1.66-.334.877-.814 1.5-1.438 1.87-.62.36-1.274.408-1.96.143-.686-.265-1.138-.728-1.358-1.39-.23-.665-.136-1.544.281-2.638l.858-2.248-.28-.107c-.607-.235-1.14-.237-1.599-.007-.459.23-.82.69-1.083 1.38a4.343 4.343 0 00-.283 1.45c-.022.501.036.953.174 1.357l-1.284.183a4.516 4.516 0 01-.182-1.733c.038-.63.177-1.26.418-1.89zm6.739 2.975c.207-.542.268-1.056.183-1.54a2.264 2.264 0 00-.702-1.255l-1.087-.42-.835 2.188c-.458 1.202-.286 1.959.517 2.269.392.151.76.117 1.101-.101.342-.219.616-.6.823-1.141zM17.07 73.07l7.41 3.855-.693 1.35-2.993-1.556c-.041 1-.267 1.9-.677 2.696-.477.929-1.06 1.535-1.749 1.818-.69.283-1.462.202-2.32-.244l-2.405-1.251.694-1.35 2.321 1.207c.513.267.982.308 1.406.125.43-.192.794-.58 1.093-1.16.338-.657.538-1.45.603-2.38l-3.384-1.76.694-1.35zm12.17-11.595a4.5 4.5 0 01.36.283l-3.775 5.651c.663.334 1.333.4 2.012.197.676-.217 1.242-.668 1.7-1.351.555-.832.724-1.691.506-2.576l1.276-.15c.155.564.17 1.146.046 1.749-.119.594-.371 1.18-.758 1.758-.491.736-1.076 1.289-1.752 1.658a3.96 3.96 0 01-2.154.471c-.745-.058-1.457-.317-2.137-.777-.67-.453-1.176-1.011-1.517-1.674a3.948 3.948 0 01-.42-2.097c.052-.74.3-1.444.745-2.11.445-.665.993-1.154 1.643-1.465a3.674 3.674 0 012.07-.374c.74.067 1.458.336 2.154.807zm-4.81 1.748c-.403.605-.56 1.236-.47 1.895.097.65.418 1.211.964 1.682l2.985-4.469c-.63-.324-1.266-.404-1.907-.24-.644.15-1.168.527-1.572 1.132zm15.493-8.544c-.552.65-1.185 1.113-1.9 1.387a4.046 4.046 0 01-2.162.206c-.74-.136-1.421-.47-2.044-1.005-.623-.534-1.055-1.155-1.297-1.862a3.97 3.97 0 01-.138-2.18c.156-.753.51-1.455 1.062-2.106.49-.578 1.042-.993 1.655-1.244a3.223 3.223 0 011.905-.197l-.183 1.363a2.553 2.553 0 00-1.316.16 2.785 2.785 0 00-1.065.793 3.056 3.056 0 00-.685 1.37c-.096.486-.053.973.126 1.46.179.473.488.898.927 1.275.447.383.92.63 1.42.74.5.095.98.056 1.443-.115a3.03 3.03 0 001.236-.896 2.81 2.81 0 00.61-1.184c.1-.427.084-.871-.05-1.332l1.297-.407c.228.626.268 1.27.12 1.934-.15.648-.47 1.262-.961 1.84zm7.006-17.545l-2.211 2.12 4.842 5.113-1.094 1.049-4.843-5.114-2.21 2.118-.913-.963 5.517-5.286.912.963zm11.538-5.992c1.023-.447 1.864-.24 2.525.62.449.585.575 1.207.379 1.867-.188.653-.714 1.315-1.578 1.986l-3.177 2.468-5.1-6.642 3.065-2.381c.78-.607 1.507-.93 2.178-.972.665-.05 1.205.197 1.622.74.27.351.408.73.416 1.138.01.392-.1.785-.33 1.176zm-3.586 2.246l1.794-1.393c.457-.355.738-.707.842-1.055.112-.354.047-.69-.197-1.007-.487-.635-1.196-.591-2.127.131L53.4 31.458l1.481 1.93zm4.113 1.367c.498-.387.81-.757.938-1.109.127-.352.063-.696-.194-1.03-.263-.342-.575-.507-.936-.493-.352.007-.773.2-1.264.582l-1.993 1.548 1.53 1.993 1.919-1.49zm7.543-14.063c.986-.604 1.887-.822 2.701-.653.824.163 1.527.727 2.111 1.692l2.62 4.328-1.224.75-.573-.948c-.013.466-.167.912-.461 1.34-.291.412-.71.786-1.257 1.121-.797.489-1.556.687-2.274.596-.71-.097-1.256-.46-1.638-1.092-.382-.631-.459-1.276-.23-1.935.222-.668.83-1.306 1.825-1.915l2.044-1.252-.155-.257c-.339-.56-.76-.889-1.262-.989-.503-.1-1.068.042-1.695.427-.422.258-.79.582-1.106.974-.322.382-.55.775-.687 1.18l-1.127-.645c.188-.522.49-1.017.909-1.483a6.297 6.297 0 011.48-1.24zm3.527 6.497c.493-.301.853-.67 1.08-1.106.223-.445.292-.92.208-1.425l-.606-1-1.99 1.218c-1.094.67-1.417 1.374-.97 2.114.219.36.53.56.933.597.404.037.852-.096 1.345-.398zM93.205 17.04c-.776.293-1.538.383-2.286.27a4.058 4.058 0 01-1.99-.873c-.572-.484-1.002-1.11-1.289-1.882-.287-.771-.37-1.523-.251-2.256a3.958 3.958 0 01.93-1.973c.49-.58 1.123-1.015 1.9-1.308.776-.292 1.533-.38 2.27-.264a3.808 3.808 0 011.976.88c.578.47 1.01 1.09 1.298 1.86.287.772.368 1.53.242 2.277a3.99 3.99 0 01-.914 1.968c-.481.575-1.11 1.01-1.886 1.302zm-.464-1.245a2.823 2.823 0 001.215-.846c.314-.39.507-.834.579-1.335.068-.51 0-1.037-.202-1.58-.203-.544-.494-.981-.875-1.311a2.524 2.524 0 00-1.308-.623 2.806 2.806 0 00-1.468.164 2.92 2.92 0 00-1.23.852c-.308.375-.5.82-.578 1.334-.072.5-.006 1.023.196 1.566.203.544.496.986.88 1.326.39.326.827.534 1.308.623.488.076.982.019 1.483-.17zM108.806 4.8l-2.958.765 1.746 6.84-1.464.378-1.746-6.84-2.958.763-.328-1.288 7.379-1.906.329 1.289zm25.96 2.317l.228 3.27-1.413.1-.136-1.943-6.956.492.136 1.943-1.429.1-.229-3.269.44-.031c.532-.07.872-.474 1.02-1.215.148-.74.212-1.777.193-3.11l-.072-2.836 6.454-.456.492 7.045 1.272-.09zm-6.757-3.65c.032 1.057.004 1.937-.083 2.642-.078.693-.279 1.205-.603 1.534l4.664-.33-.4-5.718-3.612.256.034 1.617zM142.313 0l1.509.079-.314 6.104 5.423-5.838 1.368.07-.431 8.382-1.51-.078.315-6.104-5.408 5.839-1.383-.072.431-8.382zm21.832 2.164c.795.144 1.476.449 2.044.916a3.825 3.825 0 011.208 1.746c.248.699.299 1.464.151 2.295-.149.832-.461 1.537-.937 2.116a3.796 3.796 0 01-1.736 1.215c-.693.24-1.437.288-2.233.145a3.908 3.908 0 01-1.565-.637 3.45 3.45 0 01-1.062-1.22l-.761 4.27-1.488-.268 2.011-11.285 1.425.257-.233 1.31a3.143 3.143 0 011.439-.803 3.926 3.926 0 011.737-.057zm-1.393 7.101c.527.095 1.018.06 1.474-.104a2.668 2.668 0 001.175-.85c.327-.402.542-.89.644-1.46.101-.572.067-1.099-.103-1.58a2.546 2.546 0 00-.808-1.207 2.819 2.819 0 00-1.346-.613 2.769 2.769 0 00-1.477.12 2.691 2.691 0 00-1.172.834c-.316.394-.524.876-.626 1.448-.102.572-.074 1.102.084 1.592.16.479.43.882.809 1.207.381.316.829.52 1.346.613zm20.103 2.14a4.54 4.54 0 01-.164.43l-6.468-2.008c-.127.734.004 1.399.393 1.994.401.59.993 1.005 1.775 1.248.953.295 1.819.21 2.599-.255l.509 1.186a3.627 3.627 0 01-1.65.548c-.6.057-1.231-.017-1.893-.222-.842-.262-1.536-.665-2.083-1.21a4.012 4.012 0 01-1.069-1.94c-.159-.734-.118-1.495.123-2.282.238-.776.624-1.425 1.157-1.944a3.897 3.897 0 011.874-1.01c.72-.162 1.461-.126 2.223.11.762.237 1.385.624 1.869 1.16.496.53.814 1.16.953 1.887.149.732.1 1.5-.148 2.308zm-3.05-4.129c-.691-.214-1.338-.183-1.939.094-.592.28-1.032.752-1.323 1.413l5.114 1.587c.127-.7.02-1.336-.321-1.906-.329-.577-.839-.973-1.531-1.188zm13.696 8.964l-1.585-.701-1.418 3.248-1.384-.612 3.355-7.684 1.384.611-1.418 3.248 1.614.713 3.897-2.153 1.484.656-4.511 2.418 1.358 5.356-1.628-.72-1.148-4.38zm17.626 5.184l-2.655-1.52-3.471 6.14-1.314-.752 3.472-6.14-2.655-1.518.654-1.156 6.622 3.79-.653 1.156zm4.734 11.766c-.672-.487-1.17-1.075-1.491-1.764a4.109 4.109 0 01-.381-2.15c.082-.747.363-1.454.841-2.122.479-.668 1.054-1.155 1.726-1.462a3.904 3.904 0 012.148-.317c.751.09 1.463.377 2.136.865.672.488 1.165 1.073 1.478 1.755.328.68.451 1.393.369 2.14-.068.745-.341 1.451-.82 2.12-.478.668-1.061 1.156-1.748 1.465a3.934 3.934 0 01-2.135.326c-.743-.083-1.45-.368-2.123-.855zm.773-1.079a2.81 2.81 0 001.374.547c.496.048.971-.037 1.425-.255.459-.227.858-.575 1.195-1.046.338-.471.537-.958.599-1.46.068-.51-.002-.99-.21-1.44a2.83 2.83 0 00-.95-1.138 2.903 2.903 0 00-1.387-.556 2.655 2.655 0 00-1.425.255c-.453.218-.849.563-1.186 1.034-.337.47-.54.962-.608 1.472-.053.508.017.988.21 1.44.208.45.529.833.963 1.147zm17.666 5.17c.594.552 1.004 1.178 1.232 1.88.228.7.255 1.408.082 2.125-.164.724-.532 1.395-1.102 2.015-.57.62-1.211 1.045-1.922 1.275a3.774 3.774 0 01-2.113.083c-.713-.173-1.365-.536-1.959-1.088a3.943 3.943 0 01-.978-1.385 3.482 3.482 0 01-.241-1.604l-2.928 3.186-1.109-1.032 7.737-8.418 1.063.99-.897.976a3.126 3.126 0 011.641.103c.542.173 1.04.471 1.494.894zm-4.976 5.227c.393.366.825.603 1.297.711.487.108.969.082 1.445-.079.492-.161.933-.455 1.325-.881.392-.427.645-.889.759-1.386a2.562 2.562 0 00-.034-1.456 2.837 2.837 0 00-.806-1.245 2.777 2.777 0 00-1.308-.7 2.68 2.68 0 00-1.434.068c-.477.16-.911.454-1.303.88a3.253 3.253 0 00-.782 1.387c-.122.49-.11.976.035 1.456.152.472.42.887.806 1.245zm16.104 6.384c.749.884 1.106 1.744 1.07 2.58-.03.843-.471 1.632-1.326 2.365l-3.832 3.288-.93-1.096.839-.72c-.459.062-.922-.02-1.388-.245-.451-.223-.885-.58-1.3-1.07-.606-.714-.922-1.436-.946-2.164-.018-.72.253-1.32.812-1.8s1.179-.658 1.862-.537c.691.115 1.414.619 2.17 1.51l1.553 1.831.227-.195c.495-.425.752-.895.77-1.41.019-.515-.211-1.054-.687-1.616a4.303 4.303 0 00-1.132-.944 3.61 3.61 0 00-1.267-.494l.453-1.222a4.449 4.449 0 011.6.667 6.303 6.303 0 011.452 1.273zm-5.818 4.535c.375.442.794.74 1.258.898.472.15.949.143 1.431-.02l.887-.761-1.512-1.783c-.831-.98-1.574-1.19-2.229-.628-.319.275-.465.615-.438 1.021.028.407.229.831.603 1.273zm16.613 19.275l-.862-1.51-3.058 1.767-.753-1.318 7.234-4.182.753 1.319-3.057 1.767.878 1.537 4.406.595.808 1.414-5.057-.748-2.067 5.122-.886-1.552 1.661-4.211zm3.538 15.152c-.329-.766-.455-1.527-.379-2.284a4.104 4.104 0 01.77-2.041c.453-.599 1.054-1.061 1.806-1.387.752-.326 1.494-.447 2.228-.362a3.91 3.91 0 012.004.838c.599.464 1.063 1.08 1.391 1.845.328.766.452 1.523.373 2.27a3.856 3.856 0 01-.777 2.027c-.439.604-1.034 1.069-1.785 1.395-.752.326-1.501.444-2.248.354a3.942 3.942 0 01-1.999-.824c-.595-.454-1.056-1.065-1.384-1.83zm1.214-.526c.212.494.512.887.899 1.179.402.297.853.47 1.353.517.51.043 1.03-.05 1.56-.28.53-.23.95-.544 1.259-.942a2.55 2.55 0 00.555-1.345 2.846 2.846 0 00-.234-1.467 2.925 2.925 0 00-.906-1.194 2.66 2.66 0 00-1.353-.517c-.5-.047-1.015.044-1.545.274-.53.23-.955.546-1.274.948-.305.409-.49.857-.555 1.345-.051.493.029.987.241 1.482zm13.894 18.627l-8.015 2.331-.381-1.324 5.853-1.702-5.811-1.574-.183-.639 4.103-4.424-5.867 1.706-.385-1.338 8.015-2.33.433 1.505-4.505 4.739 6.349 1.681.394 1.369zm3.083 16.427l-8.242 1.302-.235-1.502 6.936-1.096-.73-4.677-6.936 1.096-.234-1.502 8.242-1.302 1.199 7.681zm1.042 11.744c.048 1.161-.199 2.058-.74 2.694-.541.646-1.372.992-2.494 1.038l-5.033.209-.059-1.44 1.101-.045c-.398-.237-.712-.589-.941-1.055-.219-.456-.341-1.005-.367-1.649-.039-.938.156-1.702.583-2.29.428-.578 1.009-.882 1.743-.913.734-.03 1.332.215 1.795.734.473.519.733 1.364.781 2.535l.099 2.405.299-.012c.65-.027 1.14-.238 1.47-.632.331-.394.481-.96.451-1.698a4.344 4.344 0 00-.312-1.446 3.624 3.624 0 00-.694-1.175l1.107-.68c.363.418.647.924.85 1.518.213.593.334 1.227.361 1.902zm-7.359-.043c.024.58.17 1.076.439 1.488.28.411.659.701 1.139.872l1.164-.049-.096-2.341c-.053-1.287-.51-1.913-1.369-1.877-.42.017-.743.194-.971.531-.228.337-.33.796-.306 1.376zm7.334 12.632l-.111 1.517-3.532-.261-.349 4.769 3.533.261-.111 1.516-8.321-.614.111-1.517 3.485.258.348-4.77-3.485-.257.111-1.516 8.321.614zm-1.703 16.529l-.294 1.491-5.96-1.185 4.968 6.234-.266 1.352-8.184-1.628.293-1.492 5.961 1.186-4.972-6.219.269-1.367 8.185 1.628zm-3.931 17.177l-.477 1.443-5.766-1.927 4.153 6.811-.432 1.307-7.917-2.646.476-1.443 5.766 1.928-4.157-6.797.437-1.322 7.917 2.646zm-9.997 26.841a.95.95 0 01-.552.255 1.056 1.056 0 01-.622-.144c-.276-.153-.453-.365-.532-.637a1.02 1.02 0 01.094-.798c.146-.268.355-.442.626-.521.279-.074.553-.038.82.109.128.071.25.156.363.255.118.113.278.292.48.536l1.576 1.719-.477.875-1.776-1.649zm-1.431 2.624a.957.957 0 01-.552.255c-.203.02-.41-.028-.622-.145-.276-.152-.453-.364-.532-.637a1.013 1.013 0 01.094-.797c.146-.268.355-.442.625-.521a1.07 1.07 0 01.82.109c.129.071.25.156.364.255.118.113.278.292.48.536l1.576 1.719-.477.874-1.776-1.648zm-14.232 10.04l3.368-4.82-1.557-2.591.933-1.334 6.145 10.481-.897 1.283-11.893-2.255.951-1.361 2.95.597zm1.347.275l5.784 1.167-3.05-5.08-2.734 3.913zm-4.748 16.945c-.965 1.059-1.975 1.659-3.031 1.803-1.056.143-2.025-.192-2.907-1.005-.881-.814-1.297-1.756-1.247-2.826.05-1.071.558-2.136 1.522-3.194l1.841-2.019-2.46-2.269 1.064-1.167 8.122 7.491-2.904 3.186zm-4.621-4.326c-.674.739-1.033 1.446-1.079 2.121-.037.681.238 1.293.826 1.835.588.543 1.214.762 1.878.658.672-.097 1.344-.514 2.018-1.254l1.809-1.984-3.644-3.36-1.808 1.984zm-11.575 17.83l2.864-2.479-6.294-7.358 1.169-1.012 6.294 7.357 2.852-2.468.893 1.044-6.885 5.96-.893-1.044zm-20.327 2.535l4.396 6.757-.316-7.826.607-.397 6.963 3.411-4.357-6.726 1.266-.83 6.016 9.287-1.082.708-8.079-4.002.43 9.017-1.081.709-6.029-9.278 1.266-.83zm-13.42 6.97c1.011-.467 2.023-.666 3.035-.598a5.504 5.504 0 012.763.972c.817.576 1.446 1.349 1.887 2.318.442.969.613 1.953.514 2.951a5.457 5.457 0 01-1.078 2.727c-.606.825-1.414 1.47-2.425 1.937-1.002.461-2.011.654-3.027.577a5.29 5.29 0 01-2.743-.965c-.812-.567-1.441-1.339-1.887-2.318-.446-.979-.619-1.967-.52-2.965a5.495 5.495 0 011.064-2.721c.609-.815 1.415-1.454 2.417-1.915zm.583 1.281c-.734.338-1.316.81-1.745 1.414a4.028 4.028 0 00-.758 2.022 4.29 4.29 0 00.39 2.224c.332.73.803 1.308 1.414 1.735a3.936 3.936 0 002.024.756c.735.068 1.47-.068 2.204-.407a4.456 4.456 0 001.774-1.427c.438-.609.694-1.29.766-2.043.067-.739-.065-1.474-.398-2.203a4.356 4.356 0 00-1.406-1.756 4.082 4.082 0 00-2.032-.735 4.433 4.433 0 00-2.233.42zm-17.373 15.443l3.605-1.138-2.89-9.261 1.472-.465 2.889 9.261 3.59-1.133.41 1.314-8.666 2.737-.41-1.315zm-14.525-6.781c1.095-.199 2.124-.139 3.087.18a5.522 5.522 0 012.437 1.633c.648.762 1.067 1.668 1.255 2.717.188 1.049.111 2.045-.232 2.987a5.436 5.436 0 01-1.718 2.371c-.79.648-1.733 1.071-2.827 1.27-1.085.197-2.11.131-3.075-.198a5.295 5.295 0 01-2.418-1.621c-.647-.751-1.065-1.657-1.255-2.717-.191-1.059-.114-2.06.229-3.002a5.48 5.48 0 011.702-2.369c.792-.637 1.731-1.054 2.815-1.251zm.249 1.387c-.795.144-1.475.455-2.04.933a4.007 4.007 0 00-1.234 1.769 4.286 4.286 0 00-.172 2.252c.141.79.455 1.467.94 2.034a3.966 3.966 0 001.774 1.239c.695.249 1.441.301 2.236.157a4.456 4.456 0 002.071-.939c.575-.48.99-1.076 1.247-1.787.247-.7.301-1.444.159-2.234a4.388 4.388 0 00-.928-2.052 4.1 4.1 0 00-1.787-1.22 4.431 4.431 0 00-2.266-.152zm-12.959 12.321a.926.926 0 01-.742-.269 1.032 1.032 0 01-.347-.74 2.386 2.386 0 01.017-.477c.022-.149.076-.37.163-.661l.613-2.261.989-.064-.431 2.392c.204.061.374.172.51.332.127.172.198.374.212.606.02.316-.063.58-.249.793a1.023 1.023 0 01-.735.349zm-2.969.192a.927.927 0 01-.742-.27 1.03 1.03 0 01-.347-.739 2.386 2.386 0 01.017-.477c.022-.15.076-.37.163-.661l.613-2.261.989-.064-.431 2.392c.204.061.374.171.51.332.127.172.198.373.212.605.02.316-.063.581-.249.794a1.023 1.023 0 01-.735.349z" fill="#F50"/></svg>