<svg width="180" height="58" fill="none" xmlns="http://www.w3.org/2000/svg"><path fill-rule="evenodd" clip-rule="evenodd" d="M28.99 20.945a8.06 8.06 0 017.919 6.519H180v2.535H36.99c-.5 3.962-3.891 7.027-8 7.027-4.452 0-8.062-3.6-8.062-8.04 0-4.29 3.774-8.04 8.063-8.04zm0 3.26a4.787 4.787 0 014.795 4.78 4.788 4.788 0 01-4.794 4.781 4.788 4.788 0 01-4.795-4.78c0-.59.107-1.155.303-1.676a4.794 4.794 0 014.492-3.105z" fill="#F50"/><path fill-rule="evenodd" clip-rule="evenodd" d="M6.53 38.87c-.01 2.903 3.456 7.313 5.431 8.259l6.33-6.67a21.768 21.768 0 01-3.65-5.154L6.53 38.87z" fill="#D4D4D4"/><path fill-rule="evenodd" clip-rule="evenodd" d="M16.787 50.174c1.72 2.34 7.135 3.835 9.287 3.426l1.12-9.115c-2.206-.399-4.198-1.073-6.006-1.985l-4.401 7.674z" fill="#C4C4C4"/><path fill-rule="evenodd" clip-rule="evenodd" d="M31.497 53.228c2.768.895 8.037-1.05 9.543-2.64l-4.437-8.045c-2.023.963-4.034 1.578-6.036 1.893l.93 8.792z" fill="#A3A3A3"/><path fill-rule="evenodd" clip-rule="evenodd" d="M45.222 47.12c2.77-.89 5.902-5.541 6.192-7.707l-8.32-3.936a21.804 21.804 0 01-3.783 5.055l5.91 6.588z" fill="#828282"/><path fill-rule="evenodd" clip-rule="evenodd" d="M4.942 24.027c-1.704 2.353-1.465 7.95-.412 9.868l9.042-1.742a21.706 21.706 0 01.046-6.309l-8.676-1.817z" fill="#FF9473"/><path fill-rule="evenodd" clip-rule="evenodd" d="M12.412 10.965c-2.764.907-5.864 5.581-6.139 7.749l8.346 3.88a21.825 21.825 0 013.75-5.083l-5.957-6.546z" fill="#FF754D"/><path fill-rule="evenodd" clip-rule="evenodd" d="M26.11 4.763c-2.773-.878-8.03 1.1-9.526 2.698l4.488 8.018c2.016-.975 4.024-1.603 6.023-1.93l-.985-8.786z" fill="#FF5E2E"/><path fill-rule="evenodd" clip-rule="evenodd" d="M41.161 7.904c-1.699-2.356-7.1-3.899-9.257-3.508l-1.2 9.105a21.892 21.892 0 015.987 2.038l4.47-7.635zm9.997 11.041c-.01-2.901-3.507-7.287-5.49-8.218l-6.282 6.714a21.809 21.809 0 013.687 5.128l8.085-3.624z" fill="#F50"/><path d="M71.275 13.629c.739 0 1.254.293 1.55.881.126.253.188.536.188.852v8.58h-2.132v-4.03H59.704v4.03h-2.163v-8.58c0-.726.294-1.233.883-1.529.254-.137.542-.204.869-.204h11.982zm-.692 2.064h-10.58c-.169 0-.269.077-.299.237a.242.242 0 00-.016.078l.016 1.84h11.177v-1.825c0-.169-.077-.274-.236-.314a.145.145 0 00-.062-.016zm17.445 2.141c.167 0 .266-.08.299-.236a.254.254 0 00.016-.08v-1.51c0-.17-.079-.275-.237-.315a.274.274 0 00-.078-.016H77.26v2.157h10.768zm-4.026 2.078h-6.774v4.03h-2.116V13.63h13.579c.735 0 1.252.293 1.547.881.126.253.188.536.188.852v2.803c0 .733-.289 1.246-.867 1.542a1.845 1.845 0 01-.868.204h-2.005l4.025 4.031h-2.683l-4.026-4.03zm8.526-6.283h15.313v2.064h-6.645v8.25h-2.131v-8.25h-6.537v-2.064z" fill="#F50"/><path d="M125.243 13.629v10.313h-2.102v-6.674l-5.526 3.62-5.573-3.62v6.674h-2.099V13.63l7.672 5.022 7.628-5.022zm17.572 8.567c0 .723-.289 1.238-.868 1.542a1.794 1.794 0 01-.87.204h-11.935c-.717 0-1.237-.28-1.563-.835a1.766 1.766 0 01-.237-.91v-6.835c0-.693.288-1.198.868-1.512.274-.148.584-.22.933-.22h11.934c.738 0 1.253.292 1.549.88.127.253.189.536.189.852v6.834zm-2.115-.632v-5.557c0-.17-.079-.269-.238-.299a.148.148 0 00-.062-.015h-10.628c-.166 0-.266.077-.298.236a.234.234 0 00-.017.078v5.557c0 .17.106.269.315.3H140.4c.168.001.267-.101.3-.3zm4.214-7.935h15.314v2.064h-6.645v8.25h-2.132v-8.25h-6.537v-2.064zm32.887 8.567c0 .723-.288 1.238-.867 1.542a1.794 1.794 0 01-.87.204h-11.935c-.717 0-1.237-.28-1.563-.835a1.766 1.766 0 01-.237-.91v-6.835c0-.693.288-1.198.868-1.512a1.93 1.93 0 01.932-.22h11.935c.738 0 1.253.292 1.549.88.126.253.188.536.188.852v6.834zm-2.115-.632v-5.557c0-.17-.078-.269-.237-.299a.148.148 0 00-.062-.015H164.76c-.167 0-.268.077-.3.236a.257.257 0 00-.016.078v5.557c0 .17.105.269.316.3h10.627c.168.001.267-.101.299-.3z" fill="#fff"/><path d="M60.836 37.986c0 .1.045.16.138.177.01.007.024.01.036.01h7.04v1.139h-7.44c-.385 0-.666-.159-.839-.476a1 1 0 01-.121-.493v-3.664c0-.392.16-.667.484-.826a.99.99 0 01.476-.11h7.5v1.114h-7.066c-.14 0-.208.078-.208.239v2.89zm25.107.383c0 .39-.158.669-.476.833a.996.996 0 01-.477.11h-6.547c-.392 0-.678-.15-.856-.452a.945.945 0 01-.13-.491v-3.69c0-.376.158-.648.475-.818.15-.08.321-.119.511-.119h6.547c.405 0 .687.158.85.475.07.138.103.29.103.461v3.69zm-1.16-.341v-3c0-.093-.043-.147-.13-.163a.081.081 0 00-.034-.008h-5.83c-.092 0-.146.041-.164.127a.148.148 0 00-.009.043v3c0 .092.058.146.173.163h5.83c.092 0 .146-.055.163-.162zm18.897-4.286v5.57h-1.153v-3.604l-3.031 1.954-3.058-1.954v3.604h-1.15v-5.57l4.207 2.713 4.185-2.713zm16.429 2.272c.092 0 .146-.044.164-.128a.137.137 0 00.009-.044v-.815c0-.092-.043-.148-.131-.17a.143.143 0 00-.042-.01h-5.907v1.173l5.482-.007h.425zm.364 1.121h-6.288v2.177h-1.16v-5.57h7.448c.403 0 .687.158.848.476.069.137.103.29.103.46v1.513c0 .397-.158.674-.476.834a1.02 1.02 0 01-.475.11zm17.832-3.393c.405 0 .687.158.85.476.069.137.103.289.103.46v4.634h-1.17v-2.177h-6.13v2.177h-1.186v-4.634c0-.391.16-.666.484-.825a.988.988 0 01.476-.11h6.573zm-.381 1.115h-5.802c-.094 0-.149.041-.164.127a.132.132 0 00-.009.043l.009.993h6.13v-.985c0-.091-.042-.147-.129-.17a.094.094 0 00-.035-.008zm18.005 2.558v-3.673h1.169v5.57l-7.328-3.673v3.673h-1.167v-5.57l7.326 3.673zm14.67-1.547l2.485-2.126h1.742l-3.646 3.128v2.442h-1.152V36.87l-3.585-3.128h1.741l2.415 2.126z" fill="#F50"/><path fill-rule="evenodd" clip-rule="evenodd" d="M29.08 0c.72 0 1.433.027 2.139.078l-.995 1.344C14.498.797 1.4 13.286 1.4 29c0 3.238.56 6.343 1.588 9.23l-.995 1.343A28.849 28.849 0 010 29C0 12.984 13.02 0 29.08 0zm15.336 4.357a29.18 29.18 0 0110.586 11.484 6.643 6.643 0 00-1.334.475 27.768 27.768 0 00-9.864-10.691c.252-.407.456-.832.612-1.268zm-33.395 45.56a27.61 27.61 0 0018.059 6.685c10.788 0 20.134-6.155 24.7-15.135.432.183.888.323 1.36.412C50.384 51.432 40.502 58 29.08 58a29.017 29.017 0 01-19.11-7.14c.377-.273.73-.588 1.05-.944z" fill="#F50"/></svg>