<svg width="65" height="39" fill="none" xmlns="http://www.w3.org/2000/svg"><path d="M65 19.5C65 30.2 56.3 39 45.5 39 34.8 39 26 30.2 26 19.5S34.7 0 45.4 0C56.3 0 65 8.8 65 19.5z" fill="#F9B50B"/><path d="M38.9 19.6c0-1.4-.2-2.8-.4-4.1h-12c.1-.7.3-1.3.5-2.1h10.7c-.2-.7-.5-1.4-.8-2.1h-9.1c.3-.7.7-1.3 1.1-2.1h6.9c-.4-.7-.9-1.4-1.5-2.1h-3.8c.6-.7 1.2-1.3 2-2-3.4-3.2-8-5.1-13.1-5.1C8.8.3 0 8.8 0 19.5S8.7 39 19.5 39c5.1 0 9.6-2 13.1-5.1.7-.6 1.3-1.3 2-2.1h-4c-.5-.6-1-1.3-1.4-2H36c.4-.6.8-1.3 1.1-2.1H28c-.3-.6-.6-1.3-.8-2.1h10.7c.6-1.8 1-3.8 1-6z" fill="#C8191C"/><path d="M26.4 24.498l.3-1.8c-.1 0-.3.1-.5.1-.7 0-.8-.4-.7-.6l.6-3.6h1.1l.3-2h-1l.2-1.2h-2.1s-1.2 6.8-1.2 7.6c0 1.2.7 1.8 1.7 1.8.6 0 1.1-.2 1.3-.3zm.7-3.304c0 2.9 2 3.6 3.6 3.6 1.5 0 2.2-.3 2.2-.3l.4-2s-1.1.5-2.2.5c-2.3 0-1.9-1.7-1.9-1.7h4.2s.3-1.3.3-1.9c0-1.3-.7-3-3-3-2-.1-3.6 2.2-3.6 4.8zm3.6-3c1.1 0 .9 1.3.9 1.4h-2.3c.1-.1.3-1.4 1.4-1.4zm13.1 6.304l.4-2.3s-1 .5-1.8.5c-1.4 0-2.1-1.1-2.1-2.4 0-2.5 1.2-3.8 2.7-3.8 1 0 1.9.6 1.9.6l.3-2.2s-1.2-.5-2.4-.5c-2.4 0-4.7 2.1-4.7 6 0 2.6 1.2 4.3 3.7 4.3.9.1 2-.2 2-.2zM15.1 16.3c-1.4 0-2.5.4-2.5.4l-.3 1.8s.9-.4 2.3-.4c.7 0 1.3.1 1.3.7 0 .4-.1.5-.1.5h-.9c-1.8 0-3.7.7-3.7 3.1 0 1.9 1.2 2.3 2 2.3 1.4 0 2.1-.9 2.2-.9l-.1.8H17l.8-5.7c0-2.5-2-2.6-2.7-2.6zm.4 4.6c0 .3-.2 2-1.4 2-.6 0-.8-.5-.8-.8 0-.5.3-1.2 1.9-1.2h.3zm4.3 3.795c.5 0 3.1.1 3.1-2.7 0-2.6-2.5-2.1-2.5-3.1 0-.5.4-.7 1.1-.7.3 0 1.4.1 1.4.1l.3-1.9s-.7-.2-2-.2c-1.5 0-3.1.6-3.1 2.7 0 2.4 2.6 2.2 2.6 3.1 0 .6-.7.7-1.2.7-.9 0-1.9-.3-1.9-.3l-.3 1.9c.2.2.8.4 2.5.4zM61 14.7l-.4 2.8s-.8-1-2-1c-1.9 0-3.5 2.3-3.5 5 0 1.7.8 3.4 2.6 3.4 1.2 0 2-.8 2-.8l-.1.7h2.1l1.5-9.9-2.2-.2zm-1 5.4c0 1.1-.5 2.6-1.7 2.6-.7 0-1.1-.6-1.1-1.7 0-1.7.7-2.7 1.7-2.7.7.1 1.1.6 1.1 1.8zM3.8 24.6L5 17.2l.2 7.4h1.4l2.7-7.4-1.1 7.4h2.2l1.7-9.9H8.7l-2.1 6.1-.1-6.1h-3l-1.7 9.9h2z" fill="#fff"/><path d="M35.8 24.596c.6-3.4.7-6.2 2.2-5.7.2-1.3.5-1.9.7-2.4h-.4c-.9 0-1.7 1.2-1.7 1.2l.2-1.1h-2l-1.3 8h2.3zM48.6 16.3c-1.4 0-2.5.4-2.5.4l-.3 1.8s.9-.4 2.3-.4c.7 0 1.3.1 1.3.7 0 .4-.1.5-.1.5h-.9c-1.8 0-3.7.7-3.7 3.1 0 1.9 1.2 2.3 2 2.3 1.4 0 2.1-.9 2.2-.9l-.1.8h1.9l.8-5.7c0-2.5-2.2-2.6-2.9-2.6zm.5 4.6c0 .3-.2 2-1.4 2-.6 0-.8-.5-.8-.8 0-.5.3-1.2 1.9-1.2h.3zm3.999 3.696c.6-3.4.7-6.2 2.2-5.7.2-1.3.5-1.9.7-2.4h-.4c-.9 0-1.7 1.2-1.7 1.2l.2-1.1h-2l-1.3 8h2.3z" fill="#fff"/></svg>