<svg width="80" height="25" fill="none" xmlns="http://www.w3.org/2000/svg"><path d="M73.92.348h-4.98c-1.506 0-2.665.463-3.36 1.97l-9.5 21.666h6.72s1.158-2.897 1.39-3.592h8.226c.231.81.81 3.476.81 3.476h6.026L73.92.348zm-7.878 15.178c.58-1.39 2.55-6.605 2.55-6.605 0 .116.579-1.39.81-2.2l.464 2.085s1.274 5.677 1.506 6.835h-5.33v-.115zm-9.502.694c0 4.867-4.403 8.111-11.238 8.111-2.897 0-5.678-.58-7.184-1.274l.927-5.33.811.348c2.086.926 3.476 1.274 6.025 1.274 1.854 0 3.823-.695 3.823-2.317 0-1.043-.81-1.738-3.36-2.897-2.433-1.159-5.677-3.012-5.677-6.372C40.667 3.128 45.186 0 51.558 0c2.433 0 4.519.463 5.793 1.043l-.927 5.098-.463-.464c-1.159-.463-2.665-.927-4.866-.927-2.433.116-3.592 1.159-3.592 2.086 0 1.043 1.39 1.854 3.592 2.896 3.707 1.738 5.445 3.708 5.445 6.489z" fill="#3362AB"/><path d="M0 .588L.116.125h9.964c1.39 0 2.433.463 2.78 1.97l2.202 10.427C12.861 6.961 7.762 2.442 0 .588z" fill="#F9B50B"/><path d="M29.081.346l-10.08 23.52h-6.836L6.372 4.17c4.171 2.665 7.647 6.836 8.921 9.732l.696 2.433L22.245.23h6.836v.116zM31.747.23h6.372l-4.055 23.636H27.69L31.747.23z" fill="#3362AB"/></svg>