<svg width="80" height="80" viewBox="0 0 80 80" fill="none" xmlns="http://www.w3.org/2000/svg">
<path fill-rule="evenodd" clip-rule="evenodd" d="M63.9999 32C66.209 32 67.9999 30.2091 67.9999 28C67.9999 25.7909 66.209 24 63.9999 24C61.7907 24 59.9999 25.7909 59.9999 28C59.9999 30.2091 61.7907 32 63.9999 32ZM65.9999 28C65.9999 29.1046 65.1044 30 63.9999 30C62.8953 30 61.9999 29.1046 61.9999 28C61.9999 26.8954 62.8953 26 63.9999 26C65.1044 26 65.9999 26.8954 65.9999 28Z" fill="#414141"/>
<path fill-rule="evenodd" clip-rule="evenodd" d="M40.4967 38.632C41.6007 38.632 42.5927 38.848 43.4727 39.28C44.3527 39.696 45.0407 40.296 45.5367 41.08C46.0327 41.864 46.2807 42.768 46.2807 43.792C46.2807 44.88 46.0087 45.84 45.4647 46.672C44.9207 47.488 44.1847 48.12 43.2567 48.568C42.3287 49.016 41.2887 49.24 40.1367 49.24C37.8327 49.24 36.0407 48.52 34.7607 47.08C33.4967 45.64 32.8647 43.576 32.8647 40.888C32.8647 39 33.2087 37.392 33.8967 36.064C34.5847 34.72 35.5447 33.704 36.7767 33.016C38.0247 32.312 39.4647 31.96 41.0967 31.96C41.9607 31.96 42.7687 32.056 43.5207 32.248C44.2887 32.424 44.9527 32.688 45.5127 33.04L44.3607 35.392C43.5287 34.848 42.4647 34.576 41.1687 34.576C39.5527 34.576 38.2887 35.072 37.3767 36.064C36.4647 37.056 36.0087 38.488 36.0087 40.36V40.384C36.5047 39.808 37.1367 39.376 37.9047 39.088C38.6727 38.784 39.5367 38.632 40.4967 38.632ZM39.9687 46.792C40.9447 46.792 41.7367 46.536 42.3447 46.024C42.9527 45.496 43.2567 44.8 43.2567 43.936C43.2567 43.056 42.9527 42.36 42.3447 41.848C41.7367 41.336 40.9207 41.08 39.8967 41.08C38.8887 41.08 38.0647 41.352 37.4247 41.896C36.8007 42.44 36.4887 43.128 36.4887 43.96C36.4887 44.776 36.7927 45.456 37.4007 46C38.0247 46.528 38.8807 46.792 39.9687 46.792Z" fill="#414141"/>
<path d="M25.2079 39.136C26.7599 39.328 27.9439 39.856 28.7599 40.72C29.5759 41.584 29.9839 42.664 29.9839 43.96C29.9839 44.936 29.7359 45.824 29.2399 46.624C28.7439 47.424 27.9919 48.064 26.9839 48.544C25.9919 49.008 24.7759 49.24 23.3359 49.24C22.1359 49.24 20.9759 49.072 19.8559 48.736C18.7519 48.384 17.8079 47.904 17.0239 47.296L18.3679 44.872C18.9759 45.384 19.7119 45.792 20.5759 46.096C21.4559 46.384 22.3599 46.528 23.2879 46.528C24.3919 46.528 25.2559 46.304 25.8799 45.856C26.5199 45.392 26.8399 44.768 26.8399 43.984C26.8399 43.2 26.5359 42.592 25.9279 42.16C25.3359 41.712 24.4239 41.488 23.1919 41.488H21.6559V39.352L25.4719 34.816H17.8399V32.2H29.2879V34.288L25.2079 39.136Z" fill="#414141"/>
<path fill-rule="evenodd" clip-rule="evenodd" d="M52.1595 48.232C53.2156 48.904 54.4156 49.24 55.7596 49.24C57.1036 49.24 58.3036 48.904 59.3596 48.232C60.4316 47.544 61.2716 46.552 61.8796 45.256C62.4876 43.944 62.7915 42.392 62.7915 40.6C62.7915 38.808 62.4876 37.264 61.8796 35.968C61.2716 34.656 60.4316 33.664 59.3596 32.992C58.3036 32.304 57.1036 31.96 55.7596 31.96C54.4156 31.96 53.2156 32.304 52.1595 32.992C51.1035 33.664 50.2716 34.656 49.6636 35.968C49.0556 37.264 48.7516 38.808 48.7516 40.6C48.7516 42.392 49.0556 43.944 49.6636 45.256C50.2716 46.552 51.1035 47.544 52.1595 48.232ZM58.5916 45.04C57.9036 46.032 56.9596 46.528 55.7596 46.528C54.5756 46.528 53.6316 46.032 52.9276 45.04C52.2396 44.048 51.8955 42.568 51.8955 40.6C51.8955 38.632 52.2396 37.152 52.9276 36.16C53.6316 35.168 54.5756 34.672 55.7596 34.672C56.9596 34.672 57.9036 35.168 58.5916 36.16C59.2956 37.152 59.6476 38.632 59.6476 40.6C59.6476 42.568 59.2956 44.048 58.5916 45.04Z" fill="#414141"/>
<path d="M67.4738 41.6831C67.1882 41.5362 66.857 41.5053 66.5467 41.588C65.3536 41.906 65.1668 43.6134 66.1041 44.4171C67.1196 45.2878 67.7634 46.2136 68.0023 47.163C68.4263 48.8473 67.5596 50.5412 65.497 52.0601C63.4344 53.5789 60.2549 54.8643 56.3055 55.7761C52.6187 56.6273 48.3931 57.1223 44.0338 57.2166C43.527 57.2276 43.1278 57.6566 43.1607 58.1625C43.191 58.6296 43.5809 58.9923 44.0489 58.9837C49.3393 58.8867 54.4738 58.2942 58.9433 57.2624C63.6475 56.1764 67.4344 54.6453 69.8912 52.8363C72.3479 51.0272 73.3801 49.0096 72.8752 47.0035C72.3933 45.0888 70.5289 43.2547 67.4738 41.6831Z" fill="#414141"/>
<path d="M14.4534 41.5907C14.1431 41.508 13.8119 41.5389 13.5264 41.6858C10.4712 43.2574 8.60679 45.0915 8.12489 47.0062C7.61998 49.0123 8.65218 51.0299 11.1089 52.839C13.5657 54.6481 17.3526 56.1791 22.0568 57.2651C26.3991 58.2676 31.3692 58.8553 36.5 58.9769V60.6967L41 58.0987L36.5 55.5006V57.2077C32.3061 57.0892 28.2498 56.5996 24.6946 55.7788C20.7452 54.8671 17.5657 53.5817 15.5031 52.0628C13.4405 50.544 12.5738 48.85 12.9978 47.1657C13.2367 46.2163 13.8805 45.2905 14.896 44.4198C15.8333 43.6161 15.6465 41.9088 14.4534 41.5907Z" fill="#414141"/>
</svg>
