<svg width="65" height="37" fill="none" xmlns="http://www.w3.org/2000/svg"><path fill-rule="evenodd" clip-rule="evenodd" d="M56 8a4 4 0 100-8 4 4 0 000 8zm2-4a2 2 0 11-4 0 2 2 0 014 0zM32.497 14.632c1.104 0 2.096.216 2.976.648.88.416 1.568 1.016 2.064 1.8s.744 1.688.744 2.712c0 1.088-.272 2.048-.816 2.88-.544.816-1.28 1.448-2.208 1.896-.928.448-1.968.672-3.12.672-2.304 0-4.096-.72-5.376-2.16-1.264-1.44-1.896-3.504-1.896-6.192 0-1.888.344-3.496 1.032-4.824.688-1.344 1.648-2.36 2.88-3.048 1.248-.704 2.688-1.056 4.32-1.056.864 0 1.672.096 2.424.288.768.176 1.432.44 1.992.792l-1.152 2.352c-.832-.544-1.896-.816-3.192-.816-1.616 0-2.88.496-3.792 1.488-.912.992-1.368 2.424-1.368 4.296v.024c.496-.576 1.128-1.008 1.896-1.296.768-.304 1.632-.456 2.592-.456zm-.528 8.16c.976 0 1.768-.256 2.376-.768.608-.528.912-1.224.912-2.088 0-.88-.304-1.576-.912-2.088-.608-.512-1.424-.768-2.448-.768-1.008 0-1.832.272-2.472.816-.624.544-.936 1.232-.936 2.064 0 .816.304 1.496.912 2.04.624.528 1.48.792 2.568.792z" fill="#414141"/><path d="M17.208 15.136c1.552.192 2.736.72 3.552 1.584.816.864 1.224 1.944 1.224 3.24 0 .976-.248 1.864-.744 2.664s-1.248 1.44-2.256 1.92c-.992.464-2.208.696-3.648.696-1.2 0-2.36-.168-3.48-.504-1.104-.352-2.048-.832-2.832-1.44l1.344-2.424c.608.512 1.344.92 2.208 1.224.88.288 1.784.432 2.712.432 1.104 0 1.968-.224 2.592-.672.64-.464.96-1.088.96-1.872s-.304-1.392-.912-1.824c-.592-.448-1.504-.672-2.736-.672h-1.536v-2.136l3.816-4.536H9.84V8.2h11.448v2.088l-4.08 4.848z" fill="#414141"/><path fill-rule="evenodd" clip-rule="evenodd" d="M44.16 24.232c1.056.672 2.256 1.008 3.6 1.008 1.344 0 2.544-.336 3.6-1.008 1.072-.688 1.912-1.68 2.52-2.976.608-1.312.912-2.864.912-4.656 0-1.792-.304-3.336-.912-4.632-.608-1.312-1.448-2.304-2.52-2.976-1.056-.688-2.256-1.032-3.6-1.032-1.344 0-2.544.344-3.6 1.032-1.056.672-1.888 1.664-2.496 2.976-.608 1.296-.912 2.84-.912 4.632 0 1.792.304 3.344.912 4.656.608 1.296 1.44 2.288 2.496 2.976zm6.432-3.192c-.688.992-1.632 1.488-2.832 1.488-1.184 0-2.128-.496-2.832-1.488-.688-.992-1.032-2.472-1.032-4.44 0-1.968.344-3.448 1.032-4.44.704-.992 1.648-1.488 2.832-1.488 1.2 0 2.144.496 2.832 1.488.704.992 1.056 2.472 1.056 4.44 0 1.968-.352 3.448-1.056 4.44z" fill="#414141"/><path d="M59.474 17.684a1.297 1.297 0 00-.927-.095c-1.193.318-1.38 2.026-.443 2.83 1.016.87 1.66 1.796 1.898 2.745.424 1.684-.442 3.378-2.505 4.897-2.063 1.52-5.242 2.805-9.191 3.716-3.687.851-7.913 1.346-12.272 1.44a.892.892 0 00-.873.947c.03.467.42.83.888.82 5.29-.096 10.425-.689 14.894-1.72 4.705-1.087 8.491-2.618 10.948-4.427 2.457-1.809 3.49-3.826 2.984-5.832-.482-1.915-2.346-3.75-5.401-5.32zm-53.021-.092a1.297 1.297 0 00-.927.095c-3.055 1.572-4.92 3.406-5.401 5.32-.505 2.006.527 4.024 2.984 5.833 2.457 1.81 6.244 3.34 10.948 4.426 4.342 1.003 9.312 1.59 14.443 1.712v1.72L33 34.1l-4.5-2.598v1.707c-4.194-.119-8.25-.608-11.805-1.429-3.95-.912-7.13-2.197-9.192-3.716-2.063-1.519-2.93-3.213-2.505-4.897.239-.95.883-1.875 1.898-2.746.937-.804.75-2.511-.443-2.83z" fill="#414141"/></svg>