<svg width="16" height="16" fill="none" xmlns="http://www.w3.org/2000/svg"><path d="M2.667 6h2.666v2.667H2.667V6zm2.666 4H2.667v2.667h2.666V10zm1.334-4h2.666v2.667H6.667V6zm2.666 4H6.667v2.667h2.666V10zm1.334-4h2.666v2.667h-2.666V6zm2.666 4h-2.666v2.667h2.666V10z" fill="#D9DADC"/><path fill-rule="evenodd" clip-rule="evenodd" d="M2.667.333C2.667.15 2.816 0 3 0h1.333c.184 0 .334.15.334.333v1h6.666v-1c0-.184.15-.333.334-.333H13c.184 0 .333.15.333.333v1h2c.368 0 .667.299.667.667v12.667a.667.667 0 01-.667.666H.667A.667.667 0 010 14.667V2c0-.368.298-.667.667-.667h2v-1zm12 3.667H1.333v10h13.334V4z" fill="#D9DADC"/></svg>