<svg width="24" height="16" fill="none" xmlns="http://www.w3.org/2000/svg"><path d="M11.525 5.631v.1h1.2V3.424h4.58l-3.82 6.289h-.86v1.1c0 .623.166 1.227.472 1.773a4.462 4.462 0 001.25 1.397 5.78 5.78 0 001.746.87 6.802 6.802 0 001.991.294 6.8 6.8 0 001.992-.295 5.782 5.782 0 001.746-.869 4.464 4.464 0 001.25-1.397c.305-.546.472-1.15.472-1.773v-1.1H22.53l-3.82-6.289h3.715v-1.2h-9.7V.9h-1.2v1.324H1.54v1.2H5.1L1.28 9.713H.42v1.1c0 .623.166 1.227.471 1.773a4.463 4.463 0 001.25 1.397c.515.382 1.11.674 1.747.87a6.802 6.802 0 001.991.294c.678 0 1.354-.099 1.992-.295a5.782 5.782 0 001.746-.869 4.462 4.462 0 001.25-1.397c.305-.546.471-1.15.471-1.773v-1.1h-1.012L6.505 3.424h5.02v2.207zm-9.7 6.141a2.423 2.423 0 01-.188-.68h8.484a2.426 2.426 0 01-.302.91 3.266 3.266 0 01-.917 1.017 4.582 4.582 0 01-1.384.686 5.602 5.602 0 01-1.639.242c-.563 0-1.12-.082-1.639-.242a4.595 4.595 0 01-1.384-.686 3.266 3.266 0 01-.917-1.017 2.663 2.663 0 01-.114-.23zm12.017-.68h8.484a2.425 2.425 0 01-.302.91 3.266 3.266 0 01-.917 1.017 4.583 4.583 0 01-1.384.686 5.601 5.601 0 01-1.639.242c-.563 0-1.12-.082-1.639-.242a4.577 4.577 0 01-1.383-.686 3.266 3.266 0 01-.918-1.017 2.421 2.421 0 01-.302-.91zm-8.04-6.513l3.12 5.134H2.684l3.119-5.134zm9.087 5.134l3.119-5.134 3.119 5.134h-6.238z" fill="#4BA82E" stroke="#4BA82E" stroke-width=".2"/></svg>