<svg width="20" height="16" fill="none" xmlns="http://www.w3.org/2000/svg"><path fill-rule="evenodd" clip-rule="evenodd" d="M8.776 1.335L10 2.344l1.224-1.01c1.962-1.783 5.103-1.78 7.06.015l.222.204c1.992 1.828 1.992 4.818 0 6.645L10 16 1.494 8.198c-1.992-1.827-1.992-4.817 0-6.645l.223-.204C3.673-.445 6.814-.449 8.776 1.335zm-1.03 1.13c-1.371-1.258-3.612-1.258-4.983 0l-.223.204c-1.336 1.225-1.335 3.188 0 4.414L10 13.925l7.46-6.842c1.335-1.226 1.336-3.189 0-4.414l-.223-.204c-1.371-1.258-3.612-1.258-4.982 0l-.015.013L10 4.324 7.76 2.478l-.015-.013z" fill="#4BA82E"/></svg>