<svg width="15" height="12" fill="none" xmlns="http://www.w3.org/2000/svg"><path d="M2.09 0h9.964a2.09 2.09 0 012.086 1.971l.003.118v7.393a2.09 2.09 0 01-1.971 2.086l-.118.003H2.089a2.089 2.089 0 01-2.086-1.97L0 9.481V2.09A2.09 2.09 0 011.971.003L2.089 0h9.965-9.965zm11.089 3.796l-5.885 3.06a.482.482 0 01-.373.03l-.072-.03-5.885-3.06v5.686a1.125 1.125 0 001.033 1.121l.092.004h9.965a1.125 1.125 0 001.12-1.033l.005-.092V3.796zM12.054.964H2.089A1.125 1.125 0 00.97 1.997l-.005.092v.62l6.107 3.176 6.108-3.176v-.62A1.125 1.125 0 0012.145.97l-.091-.005z" fill="#F50"/></svg>