<svg width="15" height="14" fill="none" xmlns="http://www.w3.org/2000/svg"><path d="M13.737 10.6l-.215-.214c-.215-.214-.502-.428-.86-.714-.574-.427-1.29-.926-1.434-.998-.071-.071-.286-.142-.501-.142-.287 0-.502.142-.717.356-.072.071-.143.143-.143.214-.144.214-.359.357-.574.57-.215.214-.501.214-.573.214-.788-.07-4.085-3.35-4.085-4.42 0 0 .072-.214.358-.428.215-.214.502-.285.717-.428.072-.071.143-.071.215-.142.358-.143.645-.5.43-1.141a35.651 35.651 0 00-.86-1.426A10.33 10.33 0 004.85.974C4.778.902 4.707.76 4.635.689 4.42.475 4.205.332 3.99.332c-.358 0-.717.214-1.147.57 0 0-1.934 1.64-2.006 2.567 0 .072-.072.927.43 2.21C1.769 7.035 2.7 8.46 3.918 9.816a13.382 13.382 0 004.014 3.066c1.29.642 2.15.784 2.293.784h.143c.932 0 2.795-1.212 2.939-1.283.501-.357.788-.642.86-.998a1.406 1.406 0 00-.43-.785zM11.3 12.024c-.717.357-1.003.428-1.075.428-.072 0-.788-.142-1.863-.641-1.29-.642-2.509-1.57-3.655-2.781C3.56 7.819 2.772 6.535 2.27 5.323c-.43-1.07-.358-1.711-.358-1.711s.072-.214.645-.856c.358-.428.788-.784.931-.855.072-.072.215-.143.287-.214.358.499 1.003 1.426 1.29 1.925a5.3 5.3 0 00-.86.499c-.573.428-.788.927-.788 1.283 0 .214 0 .57.286 1.141.359.785 3.01 3.637 3.727 3.993.502.357.86.428 1.147.428h.143c.43 0 .932-.214 1.362-.5.358-.284.573-.498.716-.712.43.285 1.434 1.07 1.864 1.497l-.215.214c-.144.071-.645.357-1.147.57z" fill="#F50"/></svg>