<svg width="18" height="18" fill="none" xmlns="http://www.w3.org/2000/svg"><path fill-rule="evenodd" clip-rule="evenodd" d="M14.318 5.864a2.182 2.182 0 100-4.364 2.182 2.182 0 000 4.364zm0 1.5a3.682 3.682 0 100-7.364 3.682 3.682 0 000 7.364zm0 9.136a2.182 2.182 0 100-4.364 2.182 2.182 0 000 4.364zm0 1.5a3.682 3.682 0 100-7.364 3.682 3.682 0 000 7.364zM3.682 11.59a2.182 2.182 0 100-4.363 2.182 2.182 0 000 4.364zm0 1.5a3.682 3.682 0 100-7.363 3.682 3.682 0 000 7.364z" fill="#F50"/><path fill-rule="evenodd" clip-rule="evenodd" d="M12.18 5.589L6.045 8.452 5.41 7.093l6.136-2.864.635 1.36zM6.045 9.548l6.137 2.863-.635 1.36-6.136-2.864.634-1.36z" fill="#F50"/></svg>