<svg width="12" height="18" fill="none" xmlns="http://www.w3.org/2000/svg"><path fill-rule="evenodd" clip-rule="evenodd" d="M10 2.25V2a2 2 0 00-2-2H4a2 2 0 00-2 2v.25h2H.333C.15 2.25 0 2.418 0 2.625v.75c0 .207.15.375.333.375h11.334c.184 0 .333-.168.333-.375v-.75c0-.207-.15-.375-.333-.375H8h2zm-2 0V1.5H4v.75h4z" fill="#F50"/><path d="M4 7.5c-.368 0-.667.336-.667.75v6c0 .414.299.75.667.75.368 0 .667-.336.667-.75v-6c0-.414-.299-.75-.667-.75zm3.333.75c0-.414.299-.75.667-.75.368 0 .667.336.667.75v6c0 .414-.299.75-.667.75-.368 0-.667-.336-.667-.75v-6z" fill="#F50"/><path fill-rule="evenodd" clip-rule="evenodd" d="M12 18H0V4.5h12V18zM10.667 6H1.333v10.5h9.334V6z" fill="#F50"/></svg>