<svg width="20" height="20" fill="none" xmlns="http://www.w3.org/2000/svg"><path d="M14.704 5.333c0 2.516-2.09 4.584-4.704 4.584S5.295 7.849 5.295 5.333C5.295 2.818 7.385.75 10 .75c2.614 0 4.704 2.068 4.704 4.583zM.807 19.25a5.384 5.384 0 01.612-1.78c.446-.815 1.108-1.57 1.962-2.214.854-.645 1.878-1.164 3.016-1.52A12.113 12.113 0 0110 13.193c1.24 0 2.464.185 3.603.541 1.139.357 2.162.876 3.016 1.52.854.646 1.516 1.4 1.962 2.214.316.576.52 1.175.612 1.781H.807z" stroke="#fff" stroke-width="1.5"/></svg>