<svg width="14" height="14" fill="none" xmlns="http://www.w3.org/2000/svg"><path d="M6.92 3.665c1.369 0 2.027.871 2.027 1.707 0 1.031-.667 1.653-1.742 2.053l-.018.756h-.925l.018-1.173c1.102-.463 1.707-.765 1.707-1.6 0-.48-.427-.89-1.138-.89-.542 0-1.013.232-1.36.676l-.711-.418c.48-.702 1.19-1.11 2.142-1.11zm-.71 6.365V9h1.033v1.031H6.21z" fill="#D9DADC"/><path fill-rule="evenodd" clip-rule="evenodd" d="M7 13.665A6.667 6.667 0 117 .332a6.667 6.667 0 010 13.333zm.003-1.11a5.556 5.556 0 100-11.112 5.556 5.556 0 000 11.111z" fill="#D9DADC"/></svg>